<svg width="52" height="37" viewBox="0 0 52 37" fill="none" xmlns="http://www.w3.org/2000/svg">
<path id="Vector" d="M47.2171 2.33236C45.8254 1.33072 41.9472 0 25.6969 0C8.28286 0 5.69928 1.52816 4.87015 2.02818C0.457433 4.67913 0.0384748 16.4156 0 18.7953C0.0529718 21.9384 0.56102 32.3955 4.86699 34.9823C5.69452 35.4807 8.2636 37 25.6969 37C41.9577 37 45.831 35.6757 47.2171 34.6781C50.9781 31.9725 51.4107 22.6551 51.4212 18.7545C51.4115 15.6179 51.0825 5.11665 47.2172 2.33242L47.2171 2.33236ZM45.3423 32.0728C44.7828 32.4757 41.5707 33.7895 25.6968 33.7895C10.3503 33.7895 7.13023 32.5985 6.52185 32.2317C4.97283 31.3023 3.33793 26.3687 3.20956 18.7865C3.33637 11.2211 4.99375 5.69843 6.52516 4.78025C7.13514 4.41186 10.3672 3.21116 25.6968 3.21116C41.5579 3.21116 44.7787 4.5339 45.3422 4.93842C46.7171 5.92883 48.189 11.1425 48.2107 18.7649C48.189 26.5068 46.7075 31.0904 45.3423 32.0728ZM36.1652 17.2374L21.7217 8.37421C21.4782 8.22738 21.2001 8.14786 20.9158 8.14377C20.6315 8.13968 20.3512 8.21117 20.1036 8.35093C19.8558 8.49071 19.6495 8.69382 19.506 8.93948C19.3624 9.18515 19.2867 9.46454 19.2866 9.74907V27.4786C19.2868 27.9042 19.456 28.3124 19.7569 28.6134C20.0579 28.9144 20.4661 29.0836 20.8918 29.0838C21.1839 29.0838 21.4705 29.0042 21.7208 28.8534L36.1645 19.9871C36.6461 19.6958 36.9406 19.1749 36.9406 18.6123C36.9406 18.0496 36.6469 17.5271 36.1653 17.2374H36.1652ZM22.4978 24.6349V12.591L32.2294 18.6122L22.4978 24.6349Z" fill="#EDEFEE"/>
</svg>
