<svg width="47" height="37" viewBox="0 0 47 37" fill="none" xmlns="http://www.w3.org/2000/svg">
<path id="Vector" d="M46.6665 4.35449C44.916 5.10323 43.0639 5.59651 41.1686 5.81875C43.1604 4.67068 44.6582 2.84676 45.3812 0.689076C43.4982 1.773 41.4414 2.53353 39.299 2.93809C38.3969 2.00741 37.312 1.26703 36.1101 0.761949C34.9082 0.256869 33.6146 -0.0023613 32.3078 1.62067e-05C27.017 1.62067e-05 22.7353 4.15352 22.7353 9.27362C22.7316 9.98581 22.8145 10.6959 22.9823 11.3887C19.1884 11.2136 15.4734 10.2609 12.0749 8.5915C8.67651 6.92213 5.66948 4.57285 3.24624 1.69396C2.39611 3.10473 1.94651 4.71438 1.94444 6.35468C1.94444 9.5703 3.64874 12.4127 6.2222 14.0779C4.6975 14.0423 3.20404 13.645 1.86861 12.9199V13.0347C1.86861 17.5328 5.17415 21.2748 9.54914 22.1265C8.72643 22.3424 7.87864 22.4518 7.0272 22.4519C6.42304 22.4529 5.82026 22.3952 5.22762 22.2796C6.44387 25.9642 9.98372 28.6439 14.1769 28.7204C10.7696 31.3053 6.58641 32.7024 2.28472 32.6921C1.52115 32.691 0.758298 32.6463 0 32.5581C4.37613 35.3088 9.46304 36.7638 14.6552 36.7499C32.2874 36.7499 41.9201 22.6146 41.9201 10.3551C41.9201 9.95311 41.9095 9.55116 41.89 9.15878C43.7597 7.84962 45.3772 6.22272 46.6665 4.35449Z" fill="#EDEFEE"/>
</svg>
